<?xml version="1.0" encoding="utf-8"?>
<!-- Generator: Adobe Illustrator 27.2.0, SVG Export Plug-In . SVG Version: 6.00 Build 0)  -->
<svg version="1.1" id="Ebene_1" xmlns="http://www.w3.org/2000/svg" xmlns:xlink="http://www.w3.org/1999/xlink" x="0px" y="0px"
	 viewBox="0 0 230 230" style="enable-background:new 0 0 230 230;" xml:space="preserve">
<path d="M217.2,230c-4.3,0-8.5,0-12.8,0c0-4.3,0-8.6-0.1-12.8c4.3,0,8.6,0.1,12.9,0.1l-0.1-0.1C217.2,221.5,217.2,225.7,217.2,230z"
	/>
<path d="M166.1,230c-4.3,0-8.5,0-12.8,0c0-4.3,0-8.6-0.1-12.8c4.3,0,8.6,0,12.9,0C166.1,221.4,166.1,225.7,166.1,230z"/>
<path d="M115,230c-4.3,0-8.5,0-12.8,0c0-4.3,0-8.6-0.1-12.8c4.3,0,8.6,0,12.9,0C115,221.4,115,225.7,115,230z"/>
<path d="M38.3,0c4.3,0,8.5,0,12.8,0c0,4.3,0,8.5,0.1,12.8c-4.3,0-8.6,0-12.9,0C38.3,8.6,38.3,4.3,38.3,0z"/>
<path d="M63.9,230c-4.3,0-8.5,0-12.8,0c0-4.3,0-8.6-0.1-12.8c4.3,0,8.6,0,12.9,0C63.9,221.4,63.9,225.7,63.9,230z"/>
<path d="M12.8,230c-4.3,0-8.5,0-12.8,0c0-4.3,0-8.5,0-12.8c4.3,0,8.6,0,12.8,0C12.8,221.4,12.8,225.7,12.8,230z"/>
<path d="M89.4,0c4.3,0,8.5,0,12.8,0c0,4.3,0,8.5,0.1,12.8c-4.3,0-8.6,0-12.9,0C89.4,8.6,89.4,4.3,89.4,0z"/>
<path d="M140.6,0c4.3,0,8.5,0,12.8,0c0,4.3,0,8.5,0.1,12.8c-4.3,0-8.6,0-12.9,0C140.5,8.6,140.5,4.3,140.6,0z"/>
<path d="M191.7,0c4.3,0,8.5,0,12.8,0c0,4.3,0,8.5,0.1,12.8c-4.3,0-8.6,0-12.9,0C191.6,8.6,191.7,4.3,191.7,0z"/>
<path d="M0,204.4c0-4.3,0-8.5,0-12.8c4.3,0,8.6,0,12.8,0c0,4.3,0,8.6,0,12.9C8.6,204.5,4.3,204.5,0,204.4z"/>
<path d="M0,25.6c0-4.3,0-8.5,0-12.8c4.3,0,8.6,0,12.8,0.1c0,0-0.1-0.1-0.1-0.1c0,4.3,0.1,8.6,0.1,12.9C8.6,25.6,4.3,25.6,0,25.6z"/>
<path d="M0,178.9c0-4.3,0-8.5,0-12.8c4.3,0,8.6,0,12.8-0.1c0,4.3,0,8.6,0,12.9C8.6,178.9,4.3,178.9,0,178.9z"/>
<path d="M0,153.3c0-4.3,0-8.5,0-12.8c4.3,0,8.6,0,12.8,0c0,4.3,0,8.6,0,12.9C8.6,153.4,4.3,153.3,0,153.3z"/>
<path d="M0,127.8c0-4.3,0-8.5,0-12.8c4.3,0,8.6,0,12.8-0.1c0,4.3,0,8.6,0,12.9C8.6,127.8,4.3,127.8,0,127.8z"/>
<path d="M0,102.2c0-4.3,0-8.5,0-12.8c4.3,0,8.6,0,12.8,0c0,4.3,0,8.6,0,12.9C8.6,102.3,4.3,102.2,0,102.2z"/>
<path d="M0,51.1c0-4.3,0-8.5,0-12.8c4.3,0,8.6,0,12.8,0c0,4.3,0,8.6,0,12.9C8.6,51.1,4.3,51.1,0,51.1z"/>
<path d="M0,76.7c0-4.3,0-8.5,0-12.8c4.3,0,8.6,0,12.8-0.1c0,4.3,0,8.6,0,12.9C8.6,76.7,4.3,76.7,0,76.7z"/>
<path d="M191.7,230c-4.3,0-8.5,0-12.8,0c0-4.3,0-8.6,0-12.8c4.3,0,8.6,0,12.9,0C191.7,221.5,191.7,225.7,191.7,230z"/>
<path d="M140.6,230c-4.3,0-8.5,0-12.8,0c0-4.3,0-8.6,0-12.8c4.3,0,8.6,0,12.9,0C140.6,221.5,140.6,225.7,140.6,230z"/>
<path d="M217.2,51.2c4.3,0,8.6-0.1,12.8-0.1c0,4.3,0,8.5,0,12.8c-4.3,0-8.6,0-12.8,0.1c0-4.3,0.1-8.6,0.1-12.9L217.2,51.2z"/>
<path d="M230,38.3c-4.3,0-8.6-0.1-12.8-0.1l0.1,0.1c0-4.3-0.1-8.6-0.1-12.9c4.3,0,8.6,0,12.8,0C230,29.8,230,34.1,230,38.3z"/>
<path d="M89.4,230c-4.3,0-8.5,0-12.8,0c0-4.3,0-8.6,0-12.8c4.3,0,8.6,0,12.9,0C89.5,221.5,89.5,225.7,89.4,230z"/>
<path d="M38.3,230c-4.3,0-8.5,0-12.8,0c0-4.3,0-8.6,0-12.8c4.3,0,8.6,0,12.9,0C38.4,221.5,38.3,225.7,38.3,230z"/>
<path d="M217.2,76.8c4.3,0,8.6-0.1,12.8-0.1c0,4.3,0,8.5,0,12.8c-4.3,0-8.6,0-12.8,0c0-4.3,0.1-8.6,0.1-12.9L217.2,76.8z"/>
<path d="M12.8,0c4.3,0,8.5,0,12.8,0c0,4.3,0,8.6,0,12.8c-4.3,0-8.6-0.1-12.9-0.1c0,0,0.1,0.1,0.1,0.1C12.8,8.6,12.8,4.3,12.8,0z"/>
<path d="M63.9,0c4.3,0,8.5,0,12.8,0c0,4.3,0,8.6,0,12.8c-4.3,0-8.6,0-12.9,0C63.9,8.6,63.9,4.3,63.9,0z"/>
<path d="M230,217.2c-4.3,0-8.6,0-12.8,0c0,0,0.1,0.1,0.1,0.1c0-4.3-0.1-8.6-0.1-12.9c4.3,0,8.6,0,12.8,0
	C230,208.7,230,213,230,217.2z"/>
<path d="M217.2,102.3c4.3,0,8.6-0.1,12.8-0.1c0,4.3,0,8.5,0,12.8c-4.3,0-8.6,0-12.8,0.1c0-4.3,0.1-8.6,0.1-12.9
	C217.3,102.2,217.2,102.3,217.2,102.3z"/>
<path d="M217.2,127.9c4.3,0,8.6-0.1,12.8-0.1c0,4.3,0,8.5,0,12.8c-4.3,0-8.6,0-12.8,0c0-4.3,0.1-8.6,0.1-12.9
	C217.3,127.7,217.2,127.9,217.2,127.9z"/>
<path d="M115,0c4.3,0,8.5,0,12.8,0c0,4.3,0,8.6,0,12.8c-4.3,0-8.6,0-12.9,0C115,8.6,115,4.3,115,0z"/>
<path d="M217.2,153.4c4.3,0,8.6-0.1,12.8-0.1c0,4.3,0,8.5,0,12.8c-4.3,0-8.6,0-12.8,0.1c0-4.3,0.1-8.6,0.1-12.9L217.2,153.4z"/>
<path d="M166.1,0c4.3,0,8.5,0,12.8,0c0,4.3,0,8.6,0,12.8c-4.3,0-8.6,0-12.9,0C166.1,8.6,166.1,4.3,166.1,0z"/>
<path d="M217.2,179c4.3,0,8.6-0.1,12.8-0.1c0,4.3,0,8.5,0,12.8c-4.3,0-8.6-0.1-12.8-0.1c0,0,0.1,0.1,0.1,0.1c0-4.3,0-8.6,0-12.9
	L217.2,179z"/>
<path d="M230,12.8c-4.3,0-8.6,0-12.8,0.1c0-4.3,0-8.6,0-12.8c4.3,0,8.5,0,12.8,0C230,4.3,230,8.5,230,12.8z"/>
<path d="M217.2,38.2c0,4.3,0,8.6,0,12.9c0,0,0.1-0.1,0.1-0.1c-4.3,0-8.6,0.1-12.9,0.1c0-4.3,0.1-8.6,0.1-12.9l-0.1,0.1
	c4.3,0,8.6,0,12.9,0L217.2,38.2z"/>
<path d="M178.8,204.4c0,4.3,0.1,8.6,0.1,12.9c-4.3,0-8.6,0-12.9,0c0-4.3,0.1-8.6,0.1-12.9l-0.1,0.1c4.3,0,8.6,0,12.9,0
	C179,204.5,178.8,204.4,178.8,204.4z"/>
<path d="M127.7,204.4c0,4.3,0.1,8.6,0.1,12.9c-4.3,0-8.6,0-12.9,0c0-4.3,0.1-8.6,0.1-12.9l-0.1,0.1c4.3,0,8.6,0,12.9,0
	C127.8,204.5,127.7,204.4,127.7,204.4z"/>
<path d="M76.6,204.4c0,4.3,0.1,8.6,0.1,12.9c-4.3,0-8.6,0-12.9,0c0-4.3,0.1-8.6,0.1-12.9l-0.1,0.1c4.3,0,8.6,0,12.9,0L76.6,204.4z"
	/>
<path d="M25.6,204.4c0,4.3,0,8.6,0,12.9c-4.3,0-8.6,0-12.9,0c0-4.3,0-8.6,0-12.9C17,204.4,21.3,204.4,25.6,204.4z"/>
<path d="M204.4,63.9c4.3,0,8.6-0.1,12.9-0.1c0,4.3-0.1,8.6-0.1,12.9c0,0,0.1-0.1,0.1-0.1c-4.3,0.1-8.6,0.1-12.9,0.2
	c0-4.3,0.1-8.6,0.1-12.9C204.5,63.8,204.4,63.9,204.4,63.9z"/>
<path d="M12.7,76.6c4.3,0,8.6,0.1,12.9,0.1l-0.1-0.1c0,4.3,0,8.6,0,12.9c0,0,0.1-0.1,0.1-0.1c-4.3,0-8.6,0.1-12.9,0.1
	C12.7,85.2,12.7,80.9,12.7,76.6z"/>
<path d="M204.4,89.5c4.3,0,8.6-0.1,12.9-0.1c0,4.3-0.1,8.6-0.1,12.9c0,0,0.1-0.1,0.1-0.1c-4.3,0-8.6,0.1-12.9,0.1
	c0-4.3,0.1-8.6,0.1-12.9L204.4,89.5z"/>
<path d="M25.6,25.6c0-4.3-0.1-8.6-0.1-12.9c4.3,0,8.6,0,12.9,0c0,4.3-0.1,8.6-0.1,12.9l0.1-0.1c-4.3,0-8.6,0-12.9,0L25.6,25.6z"/>
<path d="M76.8,25.6c0-4.3-0.1-8.6-0.1-12.9c4.3,0,8.6,0,12.9,0c0,4.3-0.1,8.6-0.1,12.9l0.1-0.1c-4.3,0-8.6,0-12.9,0L76.8,25.6z"/>
<path d="M204.4,115.1c4.3,0,8.6-0.1,12.9-0.1c0,4.3-0.1,8.6-0.1,12.9c0,0,0.1-0.1,0.1-0.1c-4.3,0.1-8.6,0.1-12.9,0.2
	c0-4.3,0.1-8.6,0.1-12.9L204.4,115.1z"/>
<path d="M12.7,127.7c4.3,0,8.6,0.1,12.9,0.1c0,0-0.1-0.1-0.1-0.1c0,4.3,0,8.6,0,12.9c0,0,0.1-0.1,0.1-0.1c-4.3,0-8.6,0.1-12.9,0.1
	C12.7,136.3,12.7,132,12.7,127.7z"/>
<path d="M25.6,38.2c-4.3,0-8.6,0.1-12.9,0.1c0-4.3,0-8.6,0-12.9c4.3,0,8.6,0.1,12.9,0.1c0,0-0.1-0.1-0.1-0.1c0,4.3,0,8.6,0,12.9
	C25.5,38.4,25.6,38.2,25.6,38.2z"/>
<path d="M217.3,25.6c-4.3,0-8.6,0-12.9,0c0-4.3,0-8.6,0-12.9c4.3,0,8.6,0,12.9,0C217.3,17,217.3,21.3,217.3,25.6z"/>
<path d="M204.4,140.6c4.3,0,8.6-0.1,12.9-0.1c0,4.3-0.1,8.6-0.1,12.9c0,0,0.1-0.1,0.1-0.1c-4.3,0-8.6,0.1-12.9,0.1
	c0-4.3,0.1-8.6,0.1-12.9L204.4,140.6z"/>
<path d="M127.9,25.6c0-4.3-0.1-8.6-0.1-12.9c4.3,0,8.6,0,12.9,0c0,4.3-0.1,8.6-0.1,12.9l0.1-0.1c-4.3,0-8.6,0-12.9,0L127.9,25.6z"/>
<path d="M217.3,204.5c-4.3,0-8.6-0.1-12.9-0.1c0,0,0.1,0.1,0.1,0.1c0-4.3-0.1-8.6-0.1-12.9c4.3,0,8.6,0.1,12.9,0.1
	c0,0-0.1-0.1-0.1-0.1C217.2,195.9,217.2,200.2,217.3,204.5z"/>
<path d="M204.4,166.2c4.3,0,8.6-0.1,12.9-0.1c0,4.3-0.1,8.6-0.1,12.9c0,0,0.1-0.1,0.1-0.1c-4.3,0.1-8.6,0.1-12.9,0.2
	c0-4.3,0.1-8.6,0.1-12.9L204.4,166.2z"/>
<path d="M12.7,178.8c4.3,0,8.6,0.1,12.9,0.1l-0.1-0.1c0,4.3,0,8.6,0,12.9c0,0,0.1-0.1,0.1-0.1c-4.3,0-8.6,0.1-12.9,0.1
	C12.7,187.4,12.7,183.1,12.7,178.8z"/>
<path d="M179,25.6c0-4.3-0.1-8.6-0.1-12.9c4.3,0,8.6,0,12.9,0c0,4.3-0.1,8.6-0.1,12.9c0,0,0.1-0.1,0.1-0.1c-4.3,0-8.6,0-12.9,0
	C178.8,25.5,179,25.6,179,25.6z"/>
<path d="M191.6,217.3c0-4.3,0.1-8.6,0.1-12.9l-0.1,0.1c4.3,0,8.6,0,12.9,0c0,0-0.1-0.1-0.1-0.1c0,4.3,0.1,8.6,0.1,12.9
	C200.2,217.3,195.9,217.3,191.6,217.3z"/>
<path d="M166.2,12.7c0,4.3-0.1,8.6-0.1,12.9c0,0,0.1-0.1,0.1-0.1c-4.3,0-8.6,0-12.9,0l0.1,0.1c0-4.3-0.1-8.6-0.1-12.9
	C157.6,12.7,161.9,12.7,166.2,12.7z"/>
<path d="M140.5,217.3c0-4.3,0.1-8.6,0.1-12.9l-0.1,0.1c4.3,0,8.6,0,12.9,0l-0.1-0.1c0,4.3,0.1,8.6,0.1,12.9
	C149.1,217.3,144.8,217.3,140.5,217.3z"/>
<path d="M89.4,217.3c0-4.3,0.1-8.6,0.1-12.9l-0.1,0.1c4.3,0,8.6,0,12.9,0c0,0-0.1-0.1-0.1-0.1c0,4.3,0.1,8.6,0.1,12.9
	C98,217.3,93.7,217.3,89.4,217.3z"/>
<path d="M38.3,217.3c0-4.3,0.1-8.6,0.1-12.9l-0.1,0.1c4.3,0,8.6,0,12.9,0l-0.1-0.1c0,4.3,0.1,8.6,0.1,12.9
	C46.9,217.3,42.6,217.3,38.3,217.3z"/>
<path d="M115.1,12.7c0,4.3-0.1,8.6-0.1,12.9l0.1-0.1c-4.3,0-8.6,0-12.9,0c0,0,0.1,0.1,0.1,0.1c0-4.3-0.1-8.6-0.1-12.9
	C106.5,12.7,110.8,12.7,115.1,12.7z"/>
<path d="M63.9,12.7c0,4.3-0.1,8.6-0.1,12.9l0.1-0.1c-4.3,0-8.6,0-12.9,0l0.1,0.1c0-4.3-0.1-8.6-0.1-12.9
	C55.4,12.7,59.6,12.7,63.9,12.7z"/>
<path d="M12.7,102.2c4.3,0,8.6,0.1,12.9,0.1l-0.1-0.1c0,4.3,0,8.6,0,12.9l0.1-0.1c-4.3,0-8.6,0.1-12.9,0.1
	C12.7,110.8,12.7,106.5,12.7,102.2z"/>
<path d="M12.7,153.3c4.3,0,8.6,0.1,12.9,0.1l-0.1-0.1c0,4.3,0,8.6,0,12.9c0,0,0.1-0.1,0.1-0.1c-4.3,0-8.6,0.1-12.9,0.1
	C12.7,161.9,12.7,157.6,12.7,153.3z"/>
<path d="M25.6,63.8c-4.3,0-8.6,0.1-12.9,0.1c0-4.3,0-8.6,0-12.9c4.3,0,8.6,0.1,12.9,0.1L25.5,51c0,4.3,0,8.6,0,12.9L25.6,63.8z"/>
<path d="M166.2,204.4c-4.3,0-8.6,0-12.9,0c0,0,0.1,0.1,0.1,0.1c0-4.3-0.1-8.6-0.1-12.9c4.3,0,8.6,0,12.9,0c0,4.3-0.1,8.6-0.1,12.9
	L166.2,204.4z"/>
<path d="M115.1,204.4c-4.3,0-8.6,0-12.9,0c0,0,0.1,0.1,0.1,0.1c0-4.3-0.1-8.6-0.1-12.9c4.3,0,8.6,0,12.9,0c0,4.3-0.1,8.6-0.1,12.9
	L115.1,204.4z"/>
<path d="M38.2,25.6c4.3,0,8.6,0,12.9,0c0,0-0.1-0.1-0.1-0.1c0,4.3,0.1,8.6,0.1,12.9c-4.3,0-8.6-0.1-12.9-0.1l0.1,0.1
	c0-4.3,0-8.6,0-12.9C38.4,25.5,38.2,25.6,38.2,25.6z"/>
<path d="M64,204.4c-4.3,0-8.6,0-12.9,0c0,0,0.1,0.1,0.1,0.1c0-4.3-0.1-8.6-0.1-12.9c4.3,0,8.6,0,12.9,0c0,4.3-0.1,8.6-0.1,12.9
	C63.8,204.5,64,204.4,64,204.4z"/>
<path d="M89.4,25.6c4.3,0,8.6,0,12.9,0l-0.1-0.1c0,4.3,0.1,8.6,0.1,12.9c-4.3,0-8.6,0-12.9,0c0-4.3,0.1-8.6,0.1-12.9
	C89.5,25.5,89.4,25.6,89.4,25.6z"/>
<path d="M140.5,25.6c4.3,0,8.6,0,12.9,0c0,0-0.1-0.1-0.1-0.1c0,4.3,0.1,8.6,0.1,12.9c-4.3,0-8.6,0-12.9,0c0-4.3,0.1-8.6,0.1-12.9
	L140.5,25.6z"/>
<path d="M204.5,25.5c0,4.3-0.1,8.6-0.1,12.9c0,0,0.1-0.1,0.1-0.1c-4.3,0-8.6,0.1-12.9,0.1c0-4.3,0.1-8.6,0.1-12.9
	c0,0-0.1,0.1-0.1,0.1C195.9,25.6,200.2,25.5,204.5,25.5z"/>
<path d="M38.4,204.4c-4.3,0-8.6,0.1-12.9,0.1c0-4.3,0.1-8.6,0.1-12.9c0,0-0.1,0.1-0.1,0.1c4.3,0,8.6-0.1,12.9-0.1
	c0,4.3-0.1,8.6-0.1,12.9L38.4,204.4z"/>
<path d="M25.6,179c0-4.3,0-8.6,0-12.9c0,0-0.1,0.1-0.1,0.1c4.3,0,8.6-0.1,12.9-0.1c0,4.3,0,8.6,0,12.9c-4.3,0-8.6-0.1-12.9-0.1
	L25.6,179z"/>
<path d="M25.6,153.4c0-4.3,0-8.6,0-12.9c0,0-0.1,0.1-0.1,0.1c4.3,0,8.6-0.1,12.9-0.1c0,4.3,0,8.6,0,12.9c-4.3,0-8.6-0.1-12.9-0.1
	L25.6,153.4z"/>
<path d="M25.6,127.9c0-4.3,0-8.6,0-12.9c0,0-0.1,0.1-0.1,0.1c4.3,0,8.6-0.1,12.9-0.1c0,4.3,0,8.6,0,12.9c-4.3,0-8.6-0.1-12.9-0.1
	L25.6,127.9z"/>
<path d="M25.6,102.3c0-4.3,0-8.6,0-12.9c0,0-0.1,0.1-0.1,0.1c4.3,0,8.6-0.1,12.9-0.1c0,4.3,0,8.6,0,12.9c-4.3,0-8.6-0.1-12.9-0.1
	L25.6,102.3z"/>
<path d="M25.6,51.2c0-4.3,0-8.6,0-12.9c0,0-0.1,0.1-0.1,0.1c4.3,0,8.6,0,12.9,0c0,0-0.1-0.1-0.1-0.1c0,4.3,0.1,8.6,0.1,12.9
	c-4.3,0-8.6-0.1-12.9-0.1C25.5,51,25.6,51.2,25.6,51.2z"/>
<path d="M25.6,76.8c0-4.3,0-8.6,0-12.9c0,0-0.1,0.1-0.1,0.1c4.3,0,8.6-0.1,12.9-0.1c0,4.3,0,8.6,0,12.9c-4.3,0-8.6-0.1-12.9-0.1
	L25.6,76.8z"/>
<path d="M191.7,204.4c-4.3,0-8.6,0-12.9,0c0,0,0.1,0.1,0.1,0.1c0-4.3-0.1-8.6-0.1-12.9c4.3,0,8.6,0.1,12.9,0.1l-0.1-0.1
	c0,4.3,0,8.6,0,12.9L191.7,204.4z"/>
<path d="M140.6,204.4c-4.3,0-8.6,0-12.9,0c0,0,0.1,0.1,0.1,0.1c0-4.3-0.1-8.6-0.1-12.9c4.3,0,8.6,0,12.9,0c0,4.3-0.1,8.6-0.1,12.9
	L140.6,204.4z"/>
<path d="M191.6,51.2c4.3,0,8.6-0.1,12.9-0.1c0,4.3-0.1,8.6-0.1,12.9c0,0,0.1-0.1,0.1-0.1c-4.3,0-8.6,0.1-12.9,0.1
	c0-4.3,0.1-8.6,0.1-12.9L191.6,51.2z"/>
<path d="M89.5,204.4c-4.3,0-8.6,0-12.9,0c0,0,0.1,0.1,0.1,0.1c0-4.3-0.1-8.6-0.1-12.9c4.3,0,8.6,0,12.9,0c0,4.3-0.1,8.6-0.1,12.9
	L89.5,204.4z"/>
<path d="M191.6,76.8c4.3,0,8.6-0.1,12.9-0.1c0,4.3-0.1,8.6-0.1,12.9c0,0,0.1-0.1,0.1-0.1c-4.3,0-8.6,0.1-12.9,0.1
	c0-4.3,0.1-8.6,0.1-12.9L191.6,76.8z"/>
<path d="M63.8,25.6c4.3,0,8.6,0,12.9,0c0,0-0.1-0.1-0.1-0.1c0,4.3,0.1,8.6,0.1,12.9c-4.3,0-8.6,0-12.9,0c0-4.3,0.1-8.6,0.1-12.9
	L63.8,25.6z"/>
<path d="M191.6,102.3c4.3,0,8.6-0.1,12.9-0.1c0,4.3-0.1,8.6-0.1,12.9c0,0,0.1-0.1,0.1-0.1c-4.3,0-8.6,0.1-12.9,0.1
	c0-4.3,0.1-8.6,0.1-12.9C191.7,102.2,191.6,102.3,191.6,102.3z"/>
<path d="M191.6,127.9c4.3,0,8.6-0.1,12.9-0.1c0,4.3-0.1,8.6-0.1,12.9c0,0,0.1-0.1,0.1-0.1c-4.3,0-8.6,0.1-12.9,0.1
	c0-4.3,0.1-8.6,0.1-12.9L191.6,127.9z"/>
<path d="M114.9,25.6c4.3,0,8.6,0,12.9,0c0,0-0.1-0.1-0.1-0.1c0,4.3,0.1,8.6,0.1,12.9c-4.3,0-8.6,0-12.9,0c0-4.3,0.1-8.6,0.1-12.9
	L114.9,25.6z"/>
<path d="M191.6,153.4c4.3,0,8.6-0.1,12.9-0.1c0,4.3-0.1,8.6-0.1,12.9c0,0,0.1-0.1,0.1-0.1c-4.3,0-8.6,0.1-12.9,0.1
	c0-4.3,0.1-8.6,0.1-12.9L191.6,153.4z"/>
<path d="M166,25.6c4.3,0,8.6,0,12.9,0c0,0-0.1-0.1-0.1-0.1c0,4.3,0,8.6,0,12.9l0.1-0.1c-4.3,0-8.6,0.1-12.9,0.1
	c0-4.3,0.1-8.6,0.1-12.9L166,25.6z"/>
<path d="M191.6,178.8c4.3,0,8.6,0,12.9,0c0,4.3,0,8.6,0,12.9c-4.3,0-8.6-0.1-12.9-0.1c0,0,0.1,0.1,0.1,0.1
	C191.7,187.4,191.6,183.1,191.6,178.8z"/>
<path d="M178.8,38.4c4.3,0,8.6-0.1,12.9-0.1c0,4.3-0.1,8.6-0.1,12.9c0,0,0.1-0.1,0.1-0.1c-4.3,0-8.6,0.1-12.9,0.1
	c0-4.3,0.1-8.6,0.1-12.9L178.8,38.4z"/>
<path d="M178.8,178.8c0,4.3,0.1,8.6,0.1,12.9c-4.3,0-8.6,0-12.9,0c0-4.3,0.1-8.6,0.1-12.9L166,179c4.3,0,8.6,0,12.9,0
	C179,179,178.8,178.8,178.8,178.8z"/>
<path d="M127.7,178.8c0,4.3,0.1,8.6,0.1,12.9c-4.3,0-8.6,0-12.9,0c0-4.3,0.1-8.6,0.1-12.9l-0.1,0.1c4.3,0,8.6,0,12.9,0L127.7,178.8z
	"/>
<path d="M76.6,178.8c0,4.3,0.1,8.6,0.1,12.9c-4.3,0-8.6,0-12.9,0c0-4.3,0.1-8.6,0.1-12.9c0,0-0.1,0.1-0.1,0.1c4.3,0,8.6,0,12.9,0
	L76.6,178.8z"/>
<path d="M178.8,64c4.3,0,8.6-0.1,12.9-0.1c0,4.3-0.1,8.6-0.1,12.9c0,0,0.1-0.1,0.1-0.1c-4.3,0-8.6,0.1-12.9,0.1
	c0-4.3,0.1-8.6,0.1-12.9L178.8,64z"/>
<path d="M38.3,76.6c4.3,0,8.6,0.1,12.9,0.1l-0.1-0.1c0,4.3,0,8.6,0,12.9l0.1-0.1c-4.3,0-8.6,0.1-12.9,0.1
	C38.3,85.2,38.3,80.9,38.3,76.6z"/>
<path d="M178.8,89.5c4.3,0,8.6-0.1,12.9-0.1c0,4.3-0.1,8.6-0.1,12.9c0,0,0.1-0.1,0.1-0.1c-4.3,0-8.6,0.1-12.9,0.1
	c0-4.3,0.1-8.6,0.1-12.9C179,89.4,178.8,89.5,178.8,89.5z"/>
<path d="M76.8,51.2c0-4.3-0.1-8.6-0.1-12.9c4.3,0,8.6,0,12.9,0c0,4.3-0.1,8.6-0.1,12.9l0.1-0.1c-4.3,0-8.6,0-12.9,0L76.8,51.2z"/>
<path d="M178.8,115.1c4.3,0,8.6-0.1,12.9-0.1c0,4.3-0.1,8.6-0.1,12.9c0,0,0.1-0.1,0.1-0.1c-4.3,0-8.6,0.1-12.9,0.1
	c0-4.3,0.1-8.6,0.1-12.9L178.8,115.1z"/>
<path d="M38.3,127.7c4.3,0,8.6,0.1,12.9,0.1l-0.1-0.1c0,4.3,0,8.6,0,12.9l0.1-0.1c-4.3,0-8.6,0.1-12.9,0.1
	C38.3,136.3,38.3,132,38.3,127.7z"/>
<path d="M178.8,140.6c4.3,0,8.6-0.1,12.9-0.1c0,4.3-0.1,8.6-0.1,12.9c0,0,0.1-0.1,0.1-0.1c-4.3,0-8.6,0.1-12.9,0.1
	c0-4.3,0.1-8.6,0.1-12.9L178.8,140.6z"/>
<path d="M127.9,51.2c0-4.3-0.1-8.6-0.1-12.9c4.3,0,8.6,0,12.9,0c0,4.3-0.1,8.6-0.1,12.9c0,0,0.1-0.1,0.1-0.1c-4.3,0-8.6,0-12.9,0
	C127.7,51,127.9,51.2,127.9,51.2z"/>
<path d="M178.8,166.1c4.3,0,8.6,0,12.9,0c0,4.3,0,8.6,0,12.9c-4.3,0-8.6-0.1-12.9-0.1c0,0,0.1,0.1,0.1,0.1
	C178.9,174.7,178.9,170.4,178.8,166.1z"/>
<path d="M38.3,178.8c4.3,0,8.6,0,12.9,0c0,4.3,0,8.6,0,12.9c-4.3,0-8.6,0-12.9,0C38.3,187.4,38.3,183.1,38.3,178.8z"/>
<path d="M166.2,38.3c0,4.3-0.1,8.6-0.1,12.9l0.1-0.1c-4.3,0-8.6,0-12.9,0l0.1,0.1c0-4.3-0.1-8.6-0.1-12.9
	C157.6,38.3,161.9,38.3,166.2,38.3z"/>
<path d="M140.5,191.7c0-4.3,0.1-8.6,0.1-12.9l-0.1,0.1c4.3,0,8.6,0,12.9,0l-0.1-0.1c0,4.3,0.1,8.6,0.1,12.9
	C149.1,191.7,144.8,191.7,140.5,191.7z"/>
<path d="M89.4,191.7c0-4.3,0.1-8.6,0.1-12.9c0,0-0.1,0.1-0.1,0.1c4.3,0,8.6,0,12.9,0l-0.1-0.1c0,4.3,0.1,8.6,0.1,12.9
	C98,191.7,93.7,191.7,89.4,191.7z"/>
<path d="M115,38.3c0,4.3-0.1,8.6-0.1,12.9l0.1-0.1c-4.3,0-8.6,0-12.9,0c0,0,0.1,0.1,0.1,0.1c0-4.3-0.1-8.6-0.1-12.9
	C106.5,38.3,110.8,38.3,115,38.3z"/>
<path d="M63.9,38.3c0,4.3-0.1,8.6-0.1,12.9L64,51c-4.3,0-8.6,0-12.9,0l0.1,0.1c0-4.3-0.1-8.6-0.1-12.9
	C55.4,38.3,59.6,38.3,63.9,38.3z"/>
<path d="M38.3,102.2c4.3,0,8.6,0.1,12.9,0.1l-0.1-0.1c0,4.3,0,8.6,0,12.9c0,0,0.1-0.1,0.1-0.1c-4.3,0-8.6,0.1-12.9,0.1
	C38.3,110.8,38.3,106.5,38.3,102.2z"/>
<path d="M38.3,153.3c4.3,0,8.6,0.1,12.9,0.1l-0.1-0.1c0,4.3,0,8.6,0,12.9l0.1-0.1c-4.3,0-8.6,0.1-12.9,0.1
	C38.3,161.9,38.3,157.6,38.3,153.3z"/>
<path d="M51.2,63.8c-4.3,0-8.6,0.1-12.9,0.1c0-4.3,0-8.6,0-12.9c4.3,0,8.6,0.1,12.9,0.1c0,0-0.1-0.1-0.1-0.1c0,4.3,0,8.6,0,12.9
	L51.2,63.8z"/>
<path d="M166.2,178.8c-4.3,0-8.6,0-12.9,0l0.1,0.1c0-4.3-0.1-8.6-0.1-12.9c4.3,0,8.6,0.1,12.9,0.1l-0.1-0.1c0,4.3,0,8.6,0,12.9
	C166,179,166.2,178.8,166.2,178.8z"/>
<path d="M115.1,178.8c-4.3,0-8.6,0-12.9,0l0.1,0.1c0-4.3-0.1-8.6-0.1-12.9c4.3,0,8.6,0,12.9,0c0,4.3-0.1,8.6-0.1,12.9L115.1,178.8z"
	/>
<path d="M51.1,178.9c0-4.3,0.1-8.6,0.1-12.9c0,0-0.1,0.1-0.1,0.1c4.3,0,8.6-0.1,12.9-0.1c0,4.3-0.1,8.6-0.1,12.9
	c0,0,0.1-0.1,0.1-0.1C59.7,178.9,55.4,178.9,51.1,178.9z"/>
<path d="M89.4,51.2c4.3,0,8.6,0,12.9,0c0,0-0.1-0.1-0.1-0.1c0,4.3,0.1,8.6,0.1,12.9c-4.3,0-8.6,0-12.9,0c0-4.3,0.1-8.6,0.1-12.9
	L89.4,51.2z"/>
<path d="M140.5,51.2c4.3,0,8.6,0,12.9,0c0,0-0.1-0.1-0.1-0.1c0,4.3,0.1,8.6,0.1,12.9c-4.3,0-8.6,0-12.9,0c0-4.3,0.1-8.6,0.1-12.9
	L140.5,51.2z"/>
<path d="M51.2,153.4c0-4.3,0-8.6,0-12.9c0,0-0.1,0.1-0.1,0.1c4.3,0,8.6-0.1,12.9-0.1c0,4.3,0,8.6,0,12.9c-4.3,0-8.6-0.1-12.9-0.1
	L51.2,153.4z"/>
<path d="M51.2,127.8c0-4.3,0-8.6,0-12.9c0,0-0.1,0.1-0.1,0.1c4.3,0,8.6-0.1,12.9-0.1c0,4.3,0,8.6,0,12.9
	C59.6,127.8,55.4,127.8,51.2,127.8L51.2,127.8z"/>
<path d="M51.2,102.3c0-4.3,0-8.6,0-12.9c0,0-0.1,0.1-0.1,0.1c4.3,0,8.6-0.1,12.9-0.1c0,4.3,0,8.6,0,12.9c-4.3,0-8.6-0.1-12.9-0.1
	L51.2,102.3z"/>
<path d="M51.2,76.7c0-4.3,0-8.6,0-12.9c0,0-0.1,0.1-0.1,0.1c4.3,0,8.6,0,12.9,0l-0.1-0.1c0,4.3,0.1,8.6,0.1,12.9
	C59.6,76.7,55.4,76.7,51.2,76.7C51.1,76.6,51.2,76.7,51.2,76.7z"/>
<path d="M140.6,178.8c-4.3,0-8.6,0-12.9,0c0,0,0.1,0.1,0.1,0.1c0-4.3-0.1-8.6-0.1-12.9c4.3,0,8.6,0,12.9,0c0,4.3-0.1,8.6-0.1,12.9
	L140.6,178.8z"/>
<path d="M166,51.2c4.3,0,8.6-0.1,12.9-0.1c0,4.3-0.1,8.6-0.1,12.9c0,0,0.1-0.1,0.1-0.1c-4.3,0-8.6,0.1-12.9,0.1
	c0-4.3,0.1-8.6,0.1-12.9L166,51.2z"/>
<path d="M89.5,178.8c-4.3,0-8.6,0-12.9,0c0,0,0.1,0.1,0.1,0.1c0-4.3-0.1-8.6-0.1-12.9c4.3,0,8.6,0,12.9,0c0,4.3-0.1,8.6-0.1,12.9
	L89.5,178.8z"/>
<path d="M166,76.8c4.3,0,8.6-0.1,12.9-0.1c0,4.3-0.1,8.6-0.1,12.9c0,0,0.1-0.1,0.1-0.1c-4.3,0-8.6,0.1-12.9,0.1
	c0-4.3,0.1-8.6,0.1-12.9L166,76.8z"/>
<path d="M63.8,51.2c4.3,0,8.6,0,12.9,0c0,0-0.1-0.1-0.1-0.1c0,4.3,0.1,8.6,0.1,12.9c-4.3,0-8.6-0.1-12.9-0.1c0,0,0.1,0.1,0.1,0.1
	c0-4.3,0-8.6,0-12.9L63.8,51.2z"/>
<path d="M166,102.3c4.3,0,8.6-0.1,12.9-0.1c0,4.3-0.1,8.6-0.1,12.9c0,0,0.1-0.1,0.1-0.1c-4.3,0-8.6,0.1-12.9,0.1
	c0-4.3,0.1-8.6,0.1-12.9C166.2,102.2,166,102.3,166,102.3z"/>
<path d="M166,127.9c4.3,0,8.6-0.1,12.9-0.1c0,4.3-0.1,8.6-0.1,12.9c0,0,0.1-0.1,0.1-0.1c-4.3,0-8.6,0.1-12.9,0.1
	c0-4.3,0.1-8.6,0.1-12.9L166,127.9z"/>
<path d="M114.9,51.2c4.3,0,8.6,0,12.9,0c0,0-0.1-0.1-0.1-0.1c0,4.3,0.1,8.6,0.1,12.9c-4.3,0-8.6,0-12.9,0c0-4.3,0.1-8.6,0.1-12.9
	L114.9,51.2z"/>
<path d="M166.1,153.3c4.3,0,8.6,0,12.9,0c0,4.3,0,8.6,0,12.9c-4.3,0-8.6-0.1-12.9-0.1c0,0,0.1,0.1,0.1,0.1
	C166.1,161.9,166.1,157.6,166.1,153.3z"/>
<path d="M127.7,153.3c0,4.3,0.1,8.6,0.1,12.9c-4.3,0-8.6,0-12.9,0c0-4.3,0.1-8.6,0.1-12.9l-0.1,0.1c4.3,0,8.6,0,12.9,0L127.7,153.3z
	"/>
<path d="M76.7,153.3c0,4.3,0,8.6,0,12.9c-4.3,0-8.6,0-12.9,0c0-4.3,0-8.6,0-12.9C68.1,153.3,72.4,153.3,76.7,153.3z"/>
<path d="M153.2,76.7c0-4.3,0-8.6,0-12.9c4.3,0,8.6,0,12.9,0c0,4.3-0.1,8.6-0.1,12.9c0,0,0.1-0.1,0.1-0.1
	C161.9,76.6,157.6,76.7,153.2,76.7z"/>
<path d="M63.8,76.6c4.3,0,8.6,0.1,12.9,0.1c0,0-0.1-0.1-0.1-0.1c0,4.3,0,8.6,0,12.9l0.1-0.1c-4.3,0-8.6,0.1-12.9,0.1
	C63.8,85.2,63.8,80.9,63.8,76.6z"/>
<path d="M153.3,89.5c4.3,0,8.6-0.1,12.9-0.1c0,4.3-0.1,8.6-0.1,12.9c0,0,0.1-0.1,0.1-0.1c-4.3,0-8.6,0.1-12.9,0.1
	c0-4.3,0.1-8.6,0.1-12.9L153.3,89.5z"/>
<path d="M76.7,76.8c0-4.3-0.1-8.6-0.1-12.9c4.3,0,8.6,0,12.9,0c0,4.3-0.1,8.6-0.1,12.9l0.1-0.1c-4.3,0-8.6,0-12.9,0L76.7,76.8z"/>
<path d="M153.3,115.1c4.3,0,8.6-0.1,12.9-0.1c0,4.3-0.1,8.6-0.1,12.9c0,0,0.1-0.1,0.1-0.1c-4.3,0.1-8.6,0.1-12.9,0.2
	c0-4.3,0.1-8.6,0.1-12.9L153.3,115.1z"/>
<path d="M63.8,127.7c4.3,0,8.6,0.1,12.9,0.1l-0.1-0.1c0,4.3,0,8.6,0,12.9l0.1-0.1c-4.3,0-8.6,0.1-12.9,0.1
	C63.8,136.3,63.8,132,63.8,127.7z"/>
<path d="M153.3,140.6c4.3,0,8.6-0.1,12.9-0.1c0,4.3,0,8.6,0,12.9c-4.3,0-8.6-0.1-12.9-0.1c0,0,0.1,0.1,0.1,0.1c0-4.3,0-8.6,0-12.9
	L153.3,140.6z"/>
<path d="M127.9,76.7c0-4.3-0.1-8.6-0.1-12.9c4.3,0,8.6,0,12.9,0c0,4.3-0.1,8.6-0.1,12.9c0,0,0.1-0.1,0.1-0.1c-4.3,0-8.6,0-12.9,0
	C127.7,76.6,127.9,76.7,127.9,76.7z"/>
<path d="M140.5,166.2c0-4.3,0.1-8.6,0.1-12.9l-0.1,0.1c4.3,0,8.6,0,12.9,0c0,0-0.1-0.1-0.1-0.1c0,4.3,0.1,8.6,0.1,12.9
	C149.1,166.2,144.8,166.2,140.5,166.2z"/>
<path d="M89.4,166.2c0-4.3,0.1-8.6,0.1-12.9l-0.1,0.1c4.3,0,8.6,0,12.9,0l-0.1-0.1c0,4.3,0.1,8.6,0.1,12.9
	C98,166.2,93.7,166.2,89.4,166.2z"/>
<path d="M115.1,63.8c0,4.3-0.1,8.6-0.1,12.9l0.1-0.1c-4.3,0-8.6,0-12.9,0l0.1,0.1c0-4.3-0.1-8.6-0.1-12.9
	C106.5,63.8,110.8,63.8,115.1,63.8z"/>
<path d="M63.8,102.2c4.3,0,8.6,0.1,12.9,0.1c0,0-0.1-0.1-0.1-0.1c0,4.3,0,8.6,0,12.9l0.1-0.1c-4.3,0-8.6,0.1-12.9,0.1
	C63.8,110.8,63.8,106.5,63.8,102.2z"/>
<path d="M115.1,153.3c-4.3,0-8.6,0-12.9,0c0,0,0.1,0.1,0.1,0.1c0-4.3-0.1-8.6-0.1-12.9c4.3,0,8.6,0,12.9,0c0,4.3-0.1,8.6-0.1,12.9
	C114.9,153.4,115.1,153.3,115.1,153.3z"/>
<path d="M89.4,76.7c4.3,0,8.6,0,12.9,0c0,0-0.1-0.1-0.1-0.1c0,4.3,0.1,8.6,0.1,12.9c-4.3,0-8.6-0.1-12.9-0.1l0.1,0.1
	c0-4.3,0-8.6,0-12.9C89.5,76.6,89.4,76.7,89.4,76.7z"/>
<path d="M153.4,76.6c0,4.3-0.1,8.6-0.1,12.9c0,0,0.1-0.1,0.1-0.1c-4.3,0-8.6,0.1-12.9,0.1c0-4.3,0.1-8.6,0.1-12.9
	c0,0-0.1,0.1-0.1,0.1C144.8,76.7,149.1,76.6,153.4,76.6z"/>
<path d="M89.5,153.3c-4.3,0-8.6,0.1-12.9,0.1c0-4.3,0.1-8.6,0.1-12.9c0,0-0.1,0.1-0.1,0.1c4.3,0,8.6-0.1,12.9-0.1
	c0,4.3-0.1,8.6-0.1,12.9C89.4,153.4,89.5,153.3,89.5,153.3z"/>
<path d="M76.7,127.9c0-4.3,0-8.6,0-12.9c0,0-0.1,0.1-0.1,0.1c4.3,0,8.6-0.1,12.9-0.1c0,4.3,0,8.6,0,12.9c-4.3,0-8.6-0.1-12.9-0.1
	L76.7,127.9z"/>
<path d="M76.7,102.3c0-4.3,0-8.6,0-12.9c0,0-0.1,0.1-0.1,0.1c4.3,0,8.6,0,12.9,0c0,0-0.1-0.1-0.1-0.1c0,4.3,0.1,8.6,0.1,12.9
	c-4.3,0-8.6-0.1-12.9-0.1L76.7,102.3z"/>
<path d="M140.6,153.3c-4.3,0-8.6,0-12.9,0c0,0,0.1,0.1,0.1,0.1c0-4.3-0.1-8.6-0.1-12.9c4.3,0,8.6,0.1,12.9,0.1l-0.1-0.1
	c0,4.3,0,8.6,0,12.9L140.6,153.3z"/>
<path d="M140.5,102.3c4.3,0,8.6-0.1,12.9-0.1c0,4.3-0.1,8.6-0.1,12.9c0,0,0.1-0.1,0.1-0.1c-4.3,0-8.6,0.1-12.9,0.1
	c0-4.3,0.1-8.6,0.1-12.9L140.5,102.3z"/>
<path d="M140.5,127.7c4.3,0,8.6,0,12.9,0c0,4.3-0.1,8.6-0.1,12.9c0,0,0.1-0.1,0.1-0.1c-4.3,0-8.6,0-12.9,0l0.1,0.1
	C140.6,136.3,140.5,132,140.5,127.7z"/>
<path d="M114.9,76.7c4.3,0,8.6,0,12.9,0c0,0-0.1-0.1-0.1-0.1c0,4.3,0,8.6,0,12.9l0.1-0.1c-4.3,0-8.6,0.1-12.9,0.1
	c0-4.3,0.1-8.6,0.1-12.9L114.9,76.7z"/>
<path d="M127.7,127.7c0,4.3,0.1,8.6,0.1,12.9c-4.3,0-8.6,0-12.9,0c0-4.3,0.1-8.6,0.1-12.9c0,0-0.1,0.1-0.1,0.1c4.3,0,8.6,0,12.9,0
	L127.7,127.7z"/>
<path d="M127.7,89.5c4.3,0,8.6-0.1,12.9-0.1c0,4.3-0.1,8.6-0.1,12.9c0,0,0.1-0.1,0.1-0.1c-4.3,0-8.6,0.1-12.9,0.1
	c0-4.3,0.1-8.6,0.1-12.9C127.8,89.4,127.7,89.5,127.7,89.5z"/>
<path d="M127.7,115c4.3,0,8.6,0,12.9,0c0,4.3,0,8.6,0,12.9c-4.3,0-8.6-0.1-12.9-0.1c0,0,0.1,0.1,0.1,0.1
	C127.8,123.5,127.8,119.2,127.7,115z"/>
<path d="M89.4,127.7c4.3,0,8.6,0,12.9,0c0,4.3,0,8.6,0,12.9c-4.3,0-8.6,0-12.9,0C89.4,136.3,89.4,132,89.4,127.7z"/>
<path d="M115,89.4c0,4.3-0.1,8.6-0.1,12.9c0,0,0.1-0.1,0.1-0.1c-4.3,0-8.6,0-12.9,0l0.1,0.1c0-4.3-0.1-8.6-0.1-12.9
	C106.5,89.4,110.8,89.4,115,89.4z"/>
<path d="M102.3,114.9c-4.3,0-8.6,0.1-12.9,0.1c0-4.3,0-8.6,0-12.9c4.3,0,8.6,0.1,12.9,0.1c0,0-0.1-0.1-0.1-0.1c0,4.3,0,8.6,0,12.9
	L102.3,114.9z"/>
<path d="M102.2,127.8c0-4.3,0.1-8.6,0.1-12.9c0,0-0.1,0.1-0.1,0.1c4.3,0,8.6,0,12.9,0l-0.1-0.1c0,4.3,0,8.6,0,12.9
	c0,0,0.1-0.1,0.1-0.1C110.8,127.8,106.5,127.8,102.2,127.8z"/>
<path d="M127.8,115c-4.3,0-8.6-0.1-12.9-0.1c0,0,0.1,0.1,0.1,0.1c0-4.3,0-8.6,0-12.9c0,0-0.1,0.1-0.1,0.1c4.3,0,8.6-0.1,12.9-0.1
	C127.8,106.5,127.8,110.8,127.8,115z"/>
</svg>
